<svg width="30" height="30" viewBox="0 0 30 30" fill="none" xmlns="http://www.w3.org/2000/svg">
<path d="M23.1201 0C25.5283 1.23801e-10 26.7325 8.5614e-05 27.6523 0.46875C28.4613 0.880981 29.119 1.5387 29.5312 2.34766C29.9999 3.26746 30 4.47174 30 6.87988V23.1201C30 25.5283 29.9999 26.7325 29.5312 27.6523C29.119 28.4613 28.4613 29.119 27.6523 29.5312C26.7325 29.9999 25.5283 30 23.1201 30H6.87988C4.47174 30 3.26746 29.9999 2.34766 29.5312C1.5387 29.119 0.880981 28.4613 0.46875 27.6523C8.5643e-05 26.7325 1.24746e-10 25.5283 0 23.1201V6.87988C1.23801e-10 4.47174 8.5614e-05 3.26746 0.46875 2.34766C0.880981 1.5387 1.5387 0.880981 2.34766 0.46875C3.26746 8.5643e-05 4.47174 1.24746e-10 6.87988 0H23.1201ZM14.5713 4.28711C10.9712 4.28711 9.17101 4.28677 7.7959 4.9873C6.58628 5.60363 5.60266 6.58726 4.98633 7.79688C4.28568 9.172 4.28516 10.9721 4.28516 14.5723V15.4297C4.28516 19.0299 4.2857 20.83 4.98633 22.2051C5.60266 23.4147 6.58628 24.3983 7.7959 25.0146C9.17101 25.7152 10.9712 25.7148 14.5713 25.7148H15.4287C19.0288 25.7148 20.829 25.7153 22.2041 25.0146C23.4137 24.3983 24.3973 23.4147 25.0137 22.2051C25.7142 20.83 25.7139 19.0298 25.7139 15.4297V14.5723C25.7139 10.9722 25.7142 9.17198 25.0137 7.79688C24.3973 6.58726 23.4137 5.60363 22.2041 4.9873C20.829 4.28665 19.0288 4.28711 15.4287 4.28711H14.5713ZM15.4287 6.42969C17.2641 6.42969 18.5121 6.43097 19.4766 6.50977C20.4158 6.58653 20.8963 6.72574 21.2314 6.89648C22.0378 7.30737 22.6936 7.96315 23.1045 8.76953C23.2752 9.10464 23.4145 9.58516 23.4912 10.5244C23.57 11.4889 23.5713 12.7368 23.5713 14.5723V15.4297C23.5713 17.2652 23.57 18.5131 23.4912 19.4775C23.4145 20.4168 23.2752 20.8973 23.1045 21.2324C22.6936 22.0388 22.0378 22.6946 21.2314 23.1055C20.8963 23.2762 20.4158 23.4154 19.4766 23.4922C18.5121 23.571 17.2641 23.5723 15.4287 23.5723H14.5713C12.7358 23.5723 11.4879 23.571 10.5234 23.4922C9.58413 23.4154 9.10369 23.2762 8.76855 23.1055C7.96215 22.6946 7.30639 22.0388 6.89551 21.2324C6.72476 20.8973 6.58555 20.4169 6.50879 19.4775C6.42999 18.5131 6.42871 17.2652 6.42871 15.4297V14.5723C6.42871 12.7368 6.42999 11.4889 6.50879 10.5244C6.58555 9.58511 6.72476 9.10464 6.89551 8.76953C7.3064 7.96315 7.96217 7.30736 8.76855 6.89648C9.10369 6.72576 9.58415 6.58651 10.5234 6.50977C11.4879 6.43096 12.7358 6.42969 14.5713 6.42969H15.4287ZM15 9.64355C12.0413 9.64355 9.64259 12.0423 9.64258 15.001C9.64258 17.9596 12.0413 20.3584 15 20.3584C17.9586 20.3583 20.3574 17.9596 20.3574 15.001C20.3574 12.0424 17.9586 9.64365 15 9.64355ZM15 11.7871C16.7751 11.7872 18.2139 13.2258 18.2139 15.001C18.2139 16.7761 16.7751 18.2148 15 18.2148C13.2248 18.2148 11.7852 16.7762 11.7852 15.001C11.7852 13.2258 13.2248 11.7871 15 11.7871ZM20.8926 7.50098C20.005 7.50104 19.2852 8.22083 19.2852 9.1084C19.2853 9.99585 20.0051 10.7148 20.8926 10.7148C21.7801 10.7148 22.4999 9.99588 22.5 9.1084C22.5 8.2208 21.7802 7.50098 20.8926 7.50098Z" fill="#FAF9F6"/>
</svg>
