<svg width="122" height="20" viewBox="0 0 122 20" fill="none" xmlns="http://www.w3.org/2000/svg">
<path d="M4.1718 19.3894L1.66016 1.34866H6.14304L7.72004 16.3006H8.3658L10.6599 1.34866H17.906L20.2001 16.3006H20.8458L22.4228 1.34866H26.9057L24.3941 19.3894H16.8999L14.6058 4.43738H13.9601L11.6659 19.3894H4.1718ZM36.7348 19.8979C34.964 19.8979 33.404 19.5148 32.0548 18.752C30.7055 17.9891 29.6519 16.9109 28.8974 15.5141C28.1428 14.1206 27.769 12.4762 27.769 10.5843V10.1469C27.769 8.25506 28.1395 6.61407 28.8804 5.21719C29.6213 3.82371 30.6613 2.74215 32.0004 1.97929C33.3395 1.21644 34.8927 0.833313 36.6634 0.833313C38.4341 0.833313 39.9262 1.22661 41.2177 2.01659C42.5092 2.80657 43.5118 3.89491 44.2289 5.29178C44.946 6.68527 45.3063 8.30591 45.3063 10.1469V11.7099H32.3606C32.4082 12.9475 32.8636 13.9544 33.7235 14.7309C34.5834 15.5073 35.637 15.8938 36.8809 15.8938C38.1248 15.8938 39.0799 15.6158 39.678 15.0563C40.2762 14.5003 40.7282 13.8798 41.0409 13.2018L44.7353 15.1648C44.3988 15.7955 43.9162 16.4803 43.2841 17.2195C42.6485 17.9586 41.809 18.5892 40.7554 19.1113C39.7018 19.6335 38.3661 19.8945 36.7382 19.8945H36.7348V19.8979ZM32.3946 8.29235H40.7146C40.6195 7.25148 40.2048 6.41403 39.4775 5.7834C38.7468 5.15277 37.7986 4.83746 36.626 4.83746C35.4535 4.83746 34.4372 5.15277 33.7201 5.7834C33.003 6.41403 32.5612 7.25148 32.3946 8.29235ZM79.0928 19.8979C77.8251 19.8979 76.6899 19.6742 75.6873 19.2266C74.6847 18.7791 73.8894 18.1247 73.3014 17.2635C72.7168 16.4024 72.4246 15.3547 72.4246 14.1172C72.4246 12.8797 72.7168 11.8422 73.3014 11.0081C73.886 10.1707 74.7017 9.54005 75.7417 9.11624C76.7817 8.69243 77.9712 8.47883 79.3103 8.47883H84.1875V7.46169C84.1875 6.61407 83.9258 5.91563 83.399 5.36976C82.8722 4.8239 82.0361 4.55266 80.8873 4.55266C79.7386 4.55266 78.9263 4.81373 78.3757 5.33586C77.8251 5.85799 77.4682 6.52931 77.2983 7.35319L73.1383 5.93597C73.4238 5.01377 73.886 4.17293 74.5181 3.40668C75.1503 2.64383 76 2.02337 77.0638 1.55209C78.1276 1.08082 79.4259 0.843484 80.9553 0.843484C83.297 0.843484 85.1527 1.43682 86.5156 2.62687C87.8784 3.81693 88.5582 5.5359 88.5582 7.79056V14.5206C88.5582 15.2496 88.8913 15.6124 89.5608 15.6124H90.4954V19.3961H87.9838C87.1001 19.3961 86.3694 19.1792 85.795 18.7418C85.2207 18.3044 84.9352 17.7246 84.9352 16.9957V16.9584H84.2554C84.1603 17.25 83.9427 17.6331 83.6097 18.1044C83.2732 18.5757 82.7498 18.9961 82.0327 19.3589C81.3156 19.7216 80.3333 19.9047 79.0928 19.9047V19.8979ZM79.8813 16.1888C81.149 16.1888 82.1822 15.8328 82.9843 15.114C83.7864 14.3986 84.1841 13.4459 84.1841 12.2592V11.8964H79.6298C78.7937 11.8964 78.1344 12.0795 77.6585 12.4423C77.1793 12.8051 76.9414 13.317 76.9414 13.9714C76.9414 14.6258 77.1929 15.1614 77.6959 15.5717C78.1989 15.9853 78.9263 16.1888 79.8847 16.1888H79.8813ZM91.8685 19.3894V1.34866H96.314V3.38634H96.9598C97.2215 2.65739 97.6599 2.12508 98.2683 1.78604C98.8767 1.44699 99.5904 1.27746 100.403 1.27746H102.554V5.35281H100.331C99.1825 5.35281 98.2377 5.66135 97.4968 6.2818C96.7559 6.89887 96.3854 7.85159 96.3854 9.13658V19.3961H91.8651V19.3894H91.8685ZM103.917 19.3894V1.27407H108.437V8.00416H109.083L114.966 1.34866H120.849L112.638 10.0791L121.138 19.3928H115.33L109.09 12.2253H108.444V19.3928H103.917V19.3894ZM66.3239 5.02394V19.3894H70.8441V1.34527H47.1722V19.3894H51.6891V5.02394H56.7497V19.3894H61.2666V5.02394H66.3239Z" fill="#E0E0E0"/>
</svg>
