<svg xmlns="http://www.w3.org/2000/svg" width="877" height="140" viewBox="0 0 877 140" fill="none">
<path d="M18.4256 135.655L0 3.84725H32.8868L44.4557 113.088H49.193L66.0229 3.84725H119.18L136.01 113.088H140.747L152.316 3.84725H185.203L166.778 135.655H111.8L94.9702 26.4138H90.2329L73.4031 135.655H18.4256ZM257.31 139.371C244.32 139.371 232.875 136.571 222.977 130.998C213.078 125.424 205.349 117.547 199.814 107.341C194.279 97.1604 191.536 85.1464 191.536 71.324V68.1285C191.536 54.3062 194.254 42.3169 199.689 32.1112C205.125 21.9302 212.754 14.0282 222.578 8.4547C232.401 2.88118 243.796 0.0820312 256.786 0.0820312C269.776 0.0820312 280.722 2.95549 290.196 8.72718C299.671 14.4989 307.026 22.4504 312.287 32.6562C317.548 42.8371 320.191 54.6778 320.191 68.1285V79.5481H225.221C225.57 88.5896 228.911 95.9466 235.219 101.619C241.527 107.292 249.256 110.116 258.382 110.116C267.507 110.116 274.514 108.084 278.902 103.997C283.29 99.9348 286.606 95.4016 288.9 90.4474L316.002 104.79C313.534 109.397 309.993 114.401 305.356 119.801C300.693 125.201 294.535 129.809 286.806 133.624C279.076 137.438 269.278 139.346 257.335 139.346H257.31V139.371ZM225.47 54.5787H286.506C285.808 46.9739 282.766 40.8554 277.431 36.248C272.07 31.6405 265.114 29.3368 256.512 29.3368C247.91 29.3368 240.455 31.6405 235.194 36.248C229.933 40.8554 226.692 46.9739 225.47 54.5787ZM568.051 139.371C558.751 139.371 550.423 137.736 543.068 134.466C535.713 131.196 529.878 126.415 525.565 120.123C521.276 113.831 519.132 106.177 519.132 97.1356C519.132 88.0941 521.276 80.5141 525.565 74.4204C529.853 68.3019 535.837 63.6945 543.467 60.5981C551.096 57.5017 559.823 55.9411 569.647 55.9411H605.426V48.5097C605.426 42.3169 603.506 37.2141 599.641 33.2259C595.777 29.2377 589.643 27.256 581.216 27.256C572.788 27.256 566.829 29.1634 562.79 32.9782C558.751 36.793 556.133 41.6977 554.886 47.7171L524.368 37.3627C526.463 30.6249 529.853 24.4817 534.491 18.8834C539.129 13.3099 545.362 8.77672 553.166 5.33353C560.97 1.89033 570.494 0.156345 581.714 0.156345C598.893 0.156345 612.507 4.49131 622.505 13.186C632.503 21.8807 637.49 34.4397 637.49 50.9125V100.083C637.49 105.409 639.933 108.06 644.845 108.06H651.702V135.704H633.276C626.793 135.704 621.433 134.119 617.219 130.924C613.005 127.728 610.911 123.492 610.911 118.166V117.894H605.924C605.226 120.024 603.631 122.823 601.187 126.267C598.719 129.71 594.879 132.781 589.618 135.432C584.357 138.082 577.152 139.42 568.051 139.42V139.371ZM573.835 112.271C583.135 112.271 590.715 109.67 596.599 104.418C602.484 99.1916 605.401 92.2309 605.401 83.561V80.9105H571.99C565.857 80.9105 561.02 82.2481 557.529 84.8986C554.014 87.5492 552.268 91.2896 552.268 96.0705C552.268 100.851 554.113 104.765 557.803 107.762C561.494 110.785 566.829 112.271 573.86 112.271H573.835ZM661.775 135.655V3.84725H694.387V18.7348H699.124C701.044 13.4089 704.261 9.51986 708.724 7.04274C713.187 4.56562 718.423 3.32706 724.382 3.32706H740.164V33.102H723.858C715.431 33.102 708.499 35.3562 703.064 39.8894C697.628 44.3977 694.911 51.3584 694.911 60.7467V135.704H661.75V135.655H661.775ZM750.162 135.655V3.30229H783.323V52.4731H788.061L831.22 3.84725H874.379L814.141 67.6331L876.498 135.68H833.888L788.111 83.3133H783.373V135.68H750.162V135.655ZM474.377 30.6992V135.655H507.538V3.82248H333.879V135.655H367.015V30.6992H404.141V135.655H437.277V30.6992H474.377Z" fill="#E0E0E0"/>
</svg>